<?xml version="1.0" encoding="UTF-8"?>
<svg xmlns="http://www.w3.org/2000/svg" version="1.1" viewBox="0 0 595.28 595.28">
  <defs>
    <style>
      .cls-1 {
        fill: #fff;
      }

      .cls-2 {
        fill: #e8c1c2;
      }
    </style>
  </defs>
  <!-- Generator: Adobe Illustrator 28.7.2, SVG Export Plug-In . SVG Version: 1.2.0 Build 154)  -->
  <g>
    <g id="Calque_1">
      <path class="cls-1" d="M4.63,40.48c-.35-11.25,7.72-21.86,19.67-25.03h544.38c12.57,2.31,21.26,13.39,20.56,25.03-.59,9.8-7.76,18.52-17.88,21.45H18.93c-8.46-4.25-14.03-12.49-14.3-21.45Z"/>
      <path class="cls-2" d="M4,36.9c1.05-9.28,8.75-17.47,20.07-21.45h349.52c1.04.41,17.46,7.22,18.89,21.45,1.02,10.08-5.89,19.84-17.71,25.03H21.71c-11.91-5.09-18.86-14.91-17.71-25.03Z"/>
      <path class="cls-1" d="M5.85,224.02c-.35-11.25,7.72-21.86,19.67-25.03h544.38c12.57,2.31,21.26,13.39,20.56,25.03-.59,9.8-7.76,18.52-17.88,21.45H20.15c-8.46-4.25-14.03-12.49-14.3-21.45Z"/>
      <path class="cls-2" d="M4.26,220.44c1.38-9.28,1.74-17.47,16.63-21.45h469.28c1.36.41,17.04,4.26,18.93,18.5,1.34,10.08-1.84,22.8-17.38,27.99H19.67c-15.66-5.09-16.91-14.91-15.4-25.03Z"/>
      <path class="cls-1" d="M6.11,390.56c-.35-11.25,7.72-21.86,19.67-25.03h544.38c12.57,2.31,21.26,13.39,20.56,25.03-.59,9.8-7.76,18.52-17.88,21.45H20.41c-8.46-4.25-14.03-12.49-14.3-21.45Z"/>
      <path class="cls-2" d="M5.34,386.99c.86-9.28,1.08-17.47,10.34-21.45h291.83c.85.41,10.6,4.26,11.77,18.5.83,10.08-1.14,22.8-10.81,27.99H14.92c-9.74-5.09-10.52-14.91-9.58-25.03Z"/>
      <path class="cls-1" d="M6.63,562.47c-.35-11.25,7.72-21.86,19.67-25.03h544.38c12.57,2.31,21.26,13.39,20.56,25.03-.59,9.8-7.76,18.52-17.88,21.45H20.93c-8.46-4.25-14.03-12.49-14.3-21.45Z"/>
      <path class="cls-2" d="M5.82,558.9c.71-9.28.9-17.47,8.57-21.45h241.88c.7.41,8.79,4.26,9.76,18.5.69,10.08-.95,22.8-8.96,27.99H13.76c-8.07-5.09-8.72-14.91-7.94-25.03Z"/>
    </g>
  </g>
</svg>