<?xml version="1.0" encoding="UTF-8"?>
<svg xmlns="http://www.w3.org/2000/svg" version="1.1" viewBox="0 0 595.28 595.28">
  <defs>
    <style>
      .cls-1 {
        fill: #fff;
      }
    </style>
  </defs>
  <!-- Generator: Adobe Illustrator 28.7.2, SVG Export Plug-In . SVG Version: 1.2.0 Build 154)  -->
  <g>
    <g id="reproduit">
      <path class="cls-1" d="M142.98,548.75L89.64,105.61c-12.39-7.47-20.18-20.38-19.79-33.77.53-18.17,16.03-34.75,37.18-37.18,22.76-3.7,43.53,10.44,47.8,29.74,3.35,15.13-3.8,31.8-18.06,41.43.35,11.33.71,22.66,1.06,33.99,8.14-3.54,16.29-7.08,24.43-10.62,80.36-40.94,131.74-37.15,164.65-24.43,35.77,13.82,51.13,38.74,84.97,33.94,27.42-3.9,42.02-23.77,88.18-30.75,11.49-1.74,21.13-2.1,27.62-2.12l4.25,225.2c-12.45,9.59-32.85,22.76-60.55,29.74-32.87,8.29-60.82,4.05-92.42-1.06-50.69-8.2-46.51-17.66-78.61-18.06-34.68-.43-48.71,10.5-86.05,6.37-19.08-2.11-34.2-7.03-43.55-10.62,6.73,68.34,13.46,136.68,20.18,205.02-.27.83-5.09,14.68-19.12,18.06-10.75,2.59-22.35-2.08-28.85-11.75Z"/>
    </g>
  </g>
</svg>