<?xml version="1.0" encoding="UTF-8"?>
<svg xmlns="http://www.w3.org/2000/svg" version="1.1" viewBox="0 0 595.28 595.28">
  <defs>
    <style>
      .cls-1 {
        fill: #fff;
      }
    </style>
  </defs>
  <!-- Generator: Adobe Illustrator 28.7.2, SVG Export Plug-In . SVG Version: 1.2.0 Build 154)  -->
  <g>
    <g id="Calque_1">
      <g>
        <path class="cls-1" d="M178.73,139.95l-1.44,83.71c-.95,1.49.88,5.08,1.55,5.45.51.28,2.95.59,3.65,0l53.44-18.57-15.6,271.93c2.9,6.28,8.86,10.56,15.6,11.14,7.58.66,14.95-3.45,18.57-10.4l11.89-148.6,66.87-2.97v58.7c.62.73,8.53,9.62,20.8,8.17,11.64-1.38,17.26-10.88,17.83-11.89v-84.33c-.03-.31-.24-2.15-1.86-3.34-1.06-.78-2.17-.87-2.62-.88l-51.32-1.61,3.79-100.79,69.1-2.23c.67-.1,4.64-.76,7.18-4.46,2.22-3.24,1.85-6.63,1.73-7.43,1.49-28.98,2.97-57.95,4.46-86.93-3.11-5.45-8.78-8.89-14.86-8.92-7.2-.03-13.83,4.74-16.35,11.89l-2.97,61.67-129.28-1.49-29.67,18.57,2.92-43.84c-5.09-5.67-12.9-7.99-20.06-5.94-10.04,2.86-13.17,12.7-13.37,13.37Z"/>
        <path class="cls-1" d="M43.56,76.06h51.27c2.91-19.96-12.04-35.66-25.63-35.66s-28.55,15.71-25.63,35.66Z"/>
        <path class="cls-1" d="M84.42,293.75c-2.63-22.28,14.32-32.72,27.81-33.43,14.16-.75,30.16,9.6,27.92,33.43h-55.72Z"/>
        <path class="cls-1" d="M69.19,484.7c-.37-18.44,12.69-32.52,25.63-33.43,14.93-1.05,32.09,15.25,29.72,37.15l-55.35-3.71Z"/>
        <path class="cls-1" d="M494.55,529.28c-1.91-18.92,11.05-34.25,24.52-35.66,15.05-1.58,32.71,14,31.21,35.66h-55.72Z"/>
        <path class="cls-1" d="M440.31,333.13c-1.77-17.7,10.88-32.25,24.52-33.43,15.03-1.3,31.31,13.63,29.72,33.43h-54.24Z"/>
        <path class="cls-1" d="M322.92,443.83c-.15-15.41,11.74-28.05,26-28.98,15.53-1.01,29.81,12.13,29.72,28.98h-55.72Z"/>
        <path class="cls-1" d="M452.94,111.72c-2.78-22.69,13.34-35.97,27.51-35.66,13.88.3,30.36,13.58,27.47,35.66h-54.98Z"/>
        <circle class="cls-1" cx="285.65" cy="103.86" r="30.09"/>
        <path class="cls-1" d="M159.47,128.81c-2.19-1.2-.73-12.91,6.69-20.06,9.87-9.51,26.87-7.69,27.49-5.2.42,1.68-6.86,2.92-17.83,11.14-10.99,8.24-14.5,15.13-16.35,14.12Z"/>
      </g>
    </g>
  </g>
</svg>