<?xml version="1.0" encoding="UTF-8"?>
<svg xmlns="http://www.w3.org/2000/svg" version="1.1" viewBox="0 0 595.28 595.28">
  <defs>
    <style>
      .cls-1, .cls-2 {
        fill: none;
      }

      .cls-1, .cls-2, .cls-3 {
        stroke-miterlimit: 10;
        stroke-width: 12px;
      }

      .cls-1, .cls-3 {
        stroke: #fff;
      }

      .cls-2 {
        stroke: #e41717;
      }

      .cls-3 {
        fill: #fff;
      }
    </style>
  </defs>
  <!-- Generator: Adobe Illustrator 28.7.2, SVG Export Plug-In . SVG Version: 1.2.0 Build 154)  -->
  <g>
    <g id="Calque_1">
      <path class="cls-1" d="M110.74,235.77c19.45-8.24,50.44-18.54,89.64-20.02,49.21-1.85,82.46,12.84,103.57,21.76l-2.61,251.52c-20.09-7.24-44.66-15.12-80.07-16.54-46.69-1.87-87.63,8.31-110.53,16.54v-253.26Z"/>
      <path class="cls-1" d="M110.74,239.83h-6.38v259.64c20.35-8.22,58.81-19.35,103.4-18.28,35.94.87,72.78,11.09,91.55,18.28"/>
      <path class="cls-1" d="M299.31,505.54c-20.94-6.6-66.71-14.4-105.02-13.9-34.63.45-70.06,14.62-89.93,20.89h-9.08V242.73h9.08"/>
      <polyline class="cls-1" points="513.69 270.58 522.4 270.58 515.4 532.62 86.42 529.05 82.89 246.21 95.28 246.21"/>
      <path class="cls-1" d="M104.36,242.73"/>
      <polygon class="cls-3" points="468.66 236.86 468.16 242.01 462.91 295.53 448.42 270.57 426.78 293.07 428.8 232.65 428.99 227.43 468.66 236.86"/>
      <path class="cls-1" d="M500.19,255.52l-5.77,240.19c-13.79-9.43-43.41-20.76-84.86-24.96-47.74-4.82-90.6,10.9-105.62,18.27l2.64-252.1c19.86-6.51,53.79-12.74,99.48-7.52,7.95.89,15.57,2,22.75,3.25l-2.03,60.42,21.65-22.51,14.49,24.96,5.25-53.51c13.36,4.21,24.13,8.87,32.02,13.51Z"/>
      <path class="cls-1" d="M507.89,519.5c-26.42-10.35-69.6-25.66-116.33-26.7-31.4-.7-70.76,7.72-92.25,12.74v-6.07"/>
      <path class="cls-1" d="M95.33,512.53c-.49,1.38-.94,3.33,0,4.64,2.12,2.95,9.83.72,12.39,0,16.78-4.72,34.29-6.3,51.33-9.95,11.89-2.54,22.59-2.44,43.99-2.24,0,0,30.64.29,85.41,8.97,0,0,0,0,0,0,0,0,0,0,0,0-.01,0-5.05-.79-.05,0,6.81,1.06,49.78-9.15,100.31-8.38,23.88.36,78.81,8.3,119.18,19.14l-1.1-7.24"/>
      <polyline class="cls-1" points="504.99 267.1 513.69 267.1 506.73 519.5"/>
      <path class="cls-1" d="M301.34,489.03l-.98,8.81c17.24-7.46,49.78-17.12,86.56-17.22,52.68-.15,94.46,14.54,111.9,24.93l6.17-242.49h-4.99"/>
      <line class="cls-1" x1="297.89" y1="506.44" x2="293.83" y2="514.27"/>
      <path class="cls-1" d="M294.5,228.32l4.11-88.95.69-15-.87-15.65c-1.74-6.49-3.62-17.01-1.65-29.61,3.46-22.17,16.56-36.24,21.67-41.19,2.22,6.17,6.52,20.74,2.9,38.87-3.81,19.07-14.21,30.47-18.71,35.19v8.9c3.09-8.13,9.95-22.7,24.51-35.39,8.42-7.33,16.82-11.79,23.21-14.51.29,6.36-.24,14.74-3.48,23.79-10.03,28.02-38.28,42.42-43.62,44.42l-.62,3.16-3.34,29.59c6.84-13.18,13.31-24.1,18.57-32.49,12.19-19.45,17.45-24.6,24.37-27.85,7.67-3.6,15.18-3.85,20.31-3.48-2.31,9.04-6.74,21.7-15.67,34.81-15.31,22.49-37.49,34.72-47.58,39.45-.77,15.4.77,35.65,0,51.06-1.68,2-3.12-7.12-4.8-5.12Z"/>
      <path class="cls-1" d="M295.95,196.9l-6.51,2.31c-9.14-4.6-25.02-14.28-37.13-32.49-3.16-4.75-12.03-19.05-13.92-38.87-.64-6.75-1.36-14.21,1.74-15.67,3.94-1.85,12.93,9.38,30.75,31.91,13.23,16.73,19.71,26.49,20.89,40.03.32,3.67,1.87,19.15,4.19,12.77"/>
      <path class="cls-1" d="M298.04,151.68c-5.54-4.25-20.63-16.98-27.75-39.7-7.03-22.44-2.09-41.27,0-47.96,4.71,4.94,10.51,12.04,15.67,21.47,5.55,10.16,8.43,19.54,9.99,26.49.7,13.23,1.39,26.47,2.09,39.7Z"/>
      <path class="cls-1" d="M89.85,131.91"/>
      <path class="cls-1" d="M104.36,233.73c-9.09-5.77-26.46-18.57-38.87-41.48-8.67-16.01-11.65-30.9-12.76-40.57,4.55,2,12.03,6.06,18.57,13.88,3.48,4.17,5.76,8.28,7.25,11.6,5.58,9.86,20.24,46.71,25.82,56.57l-28.43-68.17c-.44-7.43-.25-17.81,2.61-29.74,2.37-9.91,5.87-17.94,8.99-23.84,1.93,11.86,3.87,23.73,5.8,35.59.65,15.09,1.3,49.31,1.95,64.39-1.81-7.39-5.12-44.74,3.86-63.23,2.55-5.27,5.61-9.54,8.53-12.91,1.95,12.55,3.33,27.47,3.07,44.24-.32,20.96-3.11,39.12-6.38,53.67Z"/>
      <path class="cls-1" d="M61.42,151.68c-3.53-2.82-10.48-9.19-14.51-19.78-5.91-15.53-1.39-29.28,0-33.07,4.4,4.52,9.8,11.02,14.51,19.73,6.4,11.84,8.84,22.82,9.86,30.17v16.83l-9.86-13.88Z"/>
      <path class="cls-1" d="M39.37,184.13"/>
      <path class="cls-1" d="M153.09,218.36c-6.22-6.2-19.94-21.62-24.37-45.5-2.31-12.47-1.33-23.17,0-30.51,4.77,3.05,14.49,10.22,20.89,23.21,9.51,19.32,4.83,37.65,3.48,42.36-2.63-6.07-16.15-38.87,0-68.46,3.87-7.09,8.69-12.61,13.34-16.83.47,8.03.66,17.86,0,29.06-.92,15.7-3.15,28.12-4.64,35.34-1.86,9-4.59,19.63-8.7,31.33Z"/>
      <path class="cls-1" d="M147.1,151.68c-3.55-3.93-14.92-13.62-18.37-23.26-4.58-12.77-3.73-23.93-2.9-29.59,3.54,2.47,8.42,6.65,12.18,13.15,9.37,16.2,10.2,36.37,9.09,39.7Z"/>
      <path class="cls-1" d="M143.81,114.5c-.91-16.48,11.81-27.18,13.34-28.43,1.88,3.13,3.84,7.44,4.64,12.76,2.62,17.45-8.14,41.38-10.23,43.61-2.07-2.83-7.29-19.49-7.76-27.95Z"/>
      <path class="cls-1" d="M140.33,111.98c-.91-2.07-5.64-21.49.58-34.61,3.52-7.42,9.09-11.55,11.89-13.34.75,4.1,1.33,10.22,0,17.41-2.25,12.12-9.23,26.97-12.47,30.55Z"/>
      <path class="cls-1" d="M143.81,114.5"/>
      <path class="cls-1" d="M438.85,227.44l.29-28.23c-3.76-5.28-9.7-15.06-12.35-28.72-2.32-11.95-1.18-21.96,0-28.04,4.92,5.63,10.88,13.86,15.25,24.85,9.84,24.7,2.24,45.89-.15,54.97l14.65-23.06c4.11-6.4,8.8-15.22,12.11-26.35,1.88-6.33,2.95-12.17,3.55-17.26-3.95,1.9-11.52,6.25-17.41,14.89-9.39,13.79-7.64,28.47-7.08,32.2l3.5-51.01c3.48-1.05,10.52-7.17,17.44-15.86,9.34-11.74,8.47-24.98,8.19-27.97-4.85,4.88-9.87,9.81-15.09,14.77-3.33,3.17-5.73,10.18-9.02,13.2l-1.52,9.91c4.43-5.23,8.43-18.77,12.29-33.75,4.39-17.08,1.73-31.31,0-38.1v-9.86c-3.47,2.36-8.31,6.4-11.69,12.76-2.38,4.49-3.53,9.2-4.1,24.37-.26,6.95.31,26.9.7,37.57-.27-.8-2.73-16.62-8.12-19-5.4-2.38-10.25-.34-11.02,0,.21,1.31.57,3.24,1.16,5.54,1.64,6.34,3.82,10.64,5.22,13.61,1.81,3.83,4.16,9.4,6.38,16.73l5.68,14.89v21.18"/>
      <path class="cls-1" d="M491.5,248.82c8.46-2.73,25.33-11.29,38.29-24.37,2.62-2.64,10.88-11.32,17.41-25.24,6.54-13.95,8.25-26.58,8.7-34.38l-17.41,10.88c-3.19,8.77-6.38,17.55-9.57,26.32-.29.8-.58,1.6-.87,2.4-1.01,4.6-3.23,11.18-8.7,16.54-3.84,3.75-6.79,4.47-11.31,7.83-4.03,3-12.01,10.77-16.54,20.02Z"/>
      <path class="cls-1" d="M500.18,208.35c.44-6.5.36-12.49,0-17.84l4.81,8.7c1.04,3.49,3.21,12.43,0,23.06-2.79,9.24-10.82,21.41-13.49,23.93,2.7-8.36,7.83-25.39,8.68-37.86Z"/>
      <path class="cls-1" d="M509.34,224.89c-.4-23.31,1.9-44.99,1.86-55.87,0-2.53-.02-7.75-.99-14.63-.32-2.24-1.15-7.57-3.48-15.67-3.65-12.66-5.78-14.1-7.4-20.89-1.31-5.47-2.07-13.56.85-24.37,10.41,8.74,16.12,17.72,19.17,23.5,2.07,3.92,4.41,8.44,5.66,14.8,2.35,11.92-.8,21.93-2.83,26.98v56.43c-3.41,1.93-9.43,7.78-12.84,9.72Z"/>
      <path class="cls-1" d="M525.01,201.39v-38.29l3.48-22.63c.89,2.08,2.51,5.88,3.43,8.04,1.22,2.85,1.29,3.02,1.36,3.18,1.13,2.74,1.87,7.39,0,15.76v16.54l-8.27,17.41Z"/>
      <path class="cls-1" d="M538.28,170.49c-2.37-8.29-4.41-18.41-5-30.03-.24-4.79-.21-9.3,0-13.49,1.45,1.45,2.9,2.9,4.35,4.35l3.48,17.84-2.83,21.32Z"/>
      <path class="cls-1" d="M547.2,165.42l-1.29-7.31c-2.06-7.46-3.96-16.63-4.8-27.21-.69-8.63-.53-16.4,0-23.04,2.33,1.99,6.32,5.93,9.14,12.16,3.02,6.69,3.18,12.7,3.05,15.81l-6.09,29.59Z"/>
      <path class="cls-1" d="M541.11,149.17"/>
      <path class="cls-1" d="M387.06,227.6c-1.07-2.76-11.94-11.66-14.8-15.33-4.55-5.86-9.77-9.16-13.05-10.88-15.67-6.26-25.54-18.58-24.8-30.46.16-2.58.92-6.85,4.35-11.75,6.35,3.71,16.38,5.81,23.79,11.75,7.28,5.84,15.22,14.27,20.16,19.58"/>
      <path class="cls-1" d="M387.06,227.6v-23.06c5.73-1.98,17.68-7.05,26.98-19.15,4.24-5.51,6.75-10.96,8.27-15.23l3.13-19.1c-1.35-2.34-2.07-8.19-4.87-8.6-4.02-.59-8.78,1.6-18.5,13.15-11.13,13.21-15.05,14.1-17.18,20.12-2.02,5.7-.09,17.01,0,20.33v31.55h2.18Z"/>
      <path class="cls-1" d="M387.93,164.83c1.45-3.92,3.97-9.74,8.27-16.1,5.59-8.27,11.81-13.94,15.67-17.41,8.86-7.97,11.43-7.94,14.92-13.05,4.53-6.64,5.23-14.11,5.1-19.44-5.11-1.91-14.39-4.36-21.98,0-3.94,2.26-6.81,6.68-12.4,15.42-3.26,5.1-5.71,9.52-7.4,12.72l-5.22,15.47v28.04l3.05-5.66Z"/>
      <path class="cls-1" d="M384.89,134.66c2.76-5.75,5.51-11.51,8.27-17.26-.87-4.64-1.74-9.28-2.61-13.93l11.52-8.27c1.18-3.4,3.3-11.16.61-20.02-1.04-3.41-2.89-9.5-8.89-13.49-1.46-.97-7.15-4.47-14.12-3.05-4.32.88-7.08,3.23-9.57,5.37-2.86,2.44-6.29,5.37-7.54,10.3-1.19,4.69.22,8.7,1.45,12.18,1.16,3.29,2.67,5.62,5.66,10.15,2.52,3.82,4.83,6.87,6.53,8.99-.29,5.8-.58,11.6-.87,17.41,2.47,8.27,4.93,16.54,7.4,24.8.73-4.4,1.45-8.8,2.18-13.2Z"/>
      <path class="cls-1" d="M379.66,140.47c-.31-.96-.62-1.91-.93-2.87-1.4-3.98-3.85-9.42-8.21-14.97-2.73-3.47-5.54-6.13-7.98-8.12l-4.21,12.98c-.78.81-5.39,5.77-4.79,12.98.37,4.36,2.47,7.41,3.48,8.7l9.57,13.05,9.57,10.88c2.03,4.64,4.06,9.28,6.09,13.92.15-8.56.29-17.12.44-25.67-1.02-6.96-2.03-13.92-3.05-20.89Z"/>
      <path class="cls-2" d="M436.67,52.13"/>
      <path class="cls-2" d="M418.39,57.79"/>
      <path class="cls-1" d="M207.34,213.14l1.74-13.92c11.88-7.9,17.25-13.41,16.1-16.54-.68-1.86-3.65-2.87-8.92-3.05l-6.31,7.4-2.61,6.36v19.75Z"/>
      <path class="cls-1" d="M203.86,213.14l-.26-2.14-1.77-14.61-13.2-11.4c-1.24-.72-9.93-5.97-10.01-14.05,0-.98-.05-4.77,2.18-6.09,2.59-1.55,7.65.61,12.18,6.09l10.88,8.7v33.51Z"/>
      <path class="cls-1" d="M207.34,179.63l8.92-17.41c2.96-3.04,6.62-4.28,8.92-3.05,1.89,1.01,2.43,3.45,3.05,6.24.57,2.6,1.14,5.17,0,7.25-1.66,3.02-6.56,4.32-11.97,3.05l-8.92,11.31v-7.4Z"/>
      <path class="cls-1" d="M207.34,177.45l-3.48-23.5,12.4-11.51c.34.06,3.29.63,4.57,3.28,1.03,2.13.3,4.18,0,5.03-1.11,3.13-3.88,4.51-4.57,4.83l-3.92,5.76-5,16.1Z"/>
      <path class="cls-1" d="M203.86,140.47l5.66-13.49,6.74-4.35c.21-.1,2.69-1.26,4.57,0,1.53,1.03,1.66,3,1.74,4.35.19,2.99-1.07,5.28-1.74,6.47-2.25,3.98-5.7,6.07-7.62,7.02l-5.87,7.4-6.22,7.73,2.74-15.13Z"/>
      <path class="cls-1" d="M201.83,126.98l3.77-12.47,6.74-8.85,8.49-6.82c2.15-2.6,5.26-3.5,7.4-2.43,1.22.61,1.86,1.72,2.18,2.43v9.02c.21.69.61,2.3,0,4.13-1.17,3.5-4.93,4.48-5.22,4.55l-8.92,2.18-6.74,3.92-7.69,17.84v-13.49Z"/>
      <path class="cls-1" d="M201.83,120.88l-4.54-24.48c-.18-2.41-.08-6.46,2.27-10.33,2.03-3.34,4.82-4.84,10.39-7.83,4.72-2.53,7.63-4.04,10.88-3.05,2.27.7,3.7,2.31,4.35,3.05,2.7,3.05,3,6.6,3.05,7.83l-5.66,7.4-9.81,6.96-5.42,4.35-5.51,16.1Z"/>
      <path class="cls-1" d="M197.29,170.49l-9.1-5.08-3.48-7.64c-.46-1.31-.13-1.97,0-2.18.76-1.24,3.45-1.5,6.53,0l6.05,2.18,4.54,5.27,2.03,16.59-6.57-9.14Z"/>
      <path class="cls-1" d="M184.71,142.45c2.43,3.04,3.67,6.12,4.35,8.32l12.76,12.28-4.54-20.68c-1.69-1.92-4.96-5.06-9.97-6.54-3.6-1.06-8.23-1.3-8.7,0-.43,1.17,2.86,2.58,6.09,6.63Z"/>
      <path class="cls-1" d="M178.62,122.62c1.51,2.23,3.13,4.58,6.09,6.96,2.46,1.98,4.84,3.16,6.53,3.86l7.83,12.28v-16.14l-5.8-8.7-12.91-6.38c-4.01-1.2-4.96-.35-5.22,0-1.07,1.4,1.25,4.82,3.48,8.12Z"/>
      <path class="cls-1" d="M170.35,96.52c.71,2.62,2.09,7.47,6.53,11.34,1.33,1.16,3.89,3.06,7.83,4.13l6.53,4.98,7.83,8.29v-7.42l-1.78-9.98c-.17-2.27-.85-6.87-4.02-11.45-3.36-4.86-7.59-6.89-10.73-8.4-2.96-1.42-5.78-2.73-9.14-1.93-1.77.42-3.09,1.28-3.92,1.93-.11,1.98-.07,5.01.87,8.51Z"/>
      <path class="cls-1" d="M178.62,170.93"/>
      <path class="cls-1" d="M186.89,155.6"/>
    </g>
  </g>
</svg>