<?xml version="1.0" encoding="UTF-8"?>
<svg xmlns="http://www.w3.org/2000/svg" version="1.1" viewBox="0 0 595.28 595.28">
  <defs>
    <style>
      .cls-1 {
        fill: #fff;
      }
    </style>
  </defs>
  <!-- Generator: Adobe Illustrator 28.7.2, SVG Export Plug-In . SVG Version: 1.2.0 Build 154)  -->
  <g>
    <g id="icone_reproduite">
      <path class="cls-1" d="M471.59,168.71c-29.66-81.03-118.76-136.3-208.24-126.66-72.81,7.85-147.87,58.9-166.55,135.33-10.37,42.46-.14,79.56,6.93,98.93,12.62,33.7,28.97,70.65,50.31,109.31,45.26,81.81,97.78,143.41,142.27,187.39,37.55-38.38,81.99-91.59,121.47-161.36,24.74-43.7,42.56-85.11,55.55-121.47,6.24-20.84,17.44-69-1.74-121.47ZM290.25,290.18c-36.86,0-66.8-29.89-66.8-66.8s29.93-66.8,66.8-66.8,66.8,29.89,66.8,66.8-29.89,66.8-66.8,66.8Z"/>
    </g>
  </g>
</svg>