<?xml version="1.0" encoding="UTF-8"?>
<svg xmlns="http://www.w3.org/2000/svg" version="1.1" viewBox="0 0 595.28 595.28">
  <defs>
    <style>
      .cls-1 {
        fill: #fff;
      }
    </style>
  </defs>
  <!-- Generator: Adobe Illustrator 28.7.2, SVG Export Plug-In . SVG Version: 1.2.0 Build 154)  -->
  <g>
    <g id="Calque_1">
      <path class="cls-1" d="M191.8,447.39l2.32-331.55,330.02-78.92v23.96l-22.92,12.5c-1.39,118.42-2.78,236.83-4.17,355.25-4.8,6.85-34.94,48.45-85.43,51.05-23.29,1.2-64.72-5.19-73.97-31.25-9.82-27.67,21.86-62.76,51.05-77.09,39.59-19.44,79.41-3.04,86.47,0l-1.04-219.82-259.08,61.58-.33,285.33c-2.1,4.31-30.48,60.21-86.47,64.59-27.03,2.11-66.69-7.3-75.29-32.64-10-29.47,26.32-67.64,60.71-81.96,34.25-14.26,66.73-4.93,78.13-1.04Z"/>
    </g>
  </g>
</svg>