<?xml version="1.0" encoding="UTF-8"?>
<svg xmlns="http://www.w3.org/2000/svg" version="1.1" viewBox="0 0 595.3 595.3">
  <defs>
    <style>
      .cls-1 {
        fill: none;
      }

      .cls-1, .cls-2 {
        stroke: #fff;
        stroke-miterlimit: 10;
        stroke-width: 18px;
      }

      .cls-2 {
        fill: #fff;
      }
    </style>
  </defs>
  <!-- Generator: Adobe Illustrator 28.7.2, SVG Export Plug-In . SVG Version: 1.2.0 Build 154)  -->
  <g>
    <g id="Calque_1">
      <path class="cls-1" d="M372.6,431.6c-51.3,62.2-135.9,92.8-210.7,76.9-46.4-9.9-112-42.6-119.6-91.1-.7-4.6-4.4-28,8.5-47.4,13.9-20.9,32.5-15.8,49.3-35.6,16.1-18.9,23.5-52.3,11.4-74-12.1-21.7-35.3-16.3-56-46.5-4.2-6.1-11.3-16.5-13.3-30.4-6-42.2,40.6-78.4,48.4-84.5,40.7-31.6,87.3-32.3,106.3-32.3,75.9,0,153.2,42.3,194.6,111.1,10,16.6,16.8,33,21.4,47.9l-107.6,96.7,36.9,35.9,80.1-85.1c.3,3.8.5,6.9.6,9.5.5,13.5,1.7,85.8-50.3,149h0Z"/>
      <path class="cls-2" d="M281.4,343.8c-13.7-4.9-32.7,2.4-40.8,15.2-5.4,8.5-1.3,12.1-3.8,31.3-1.3,9.9-5.7,43.4-28.5,59.8-6,4.4-9.7,4.9-9.5,6.6.8,6.1,47.6,16.1,84.5-6.6,21.2-13.1,35.4-34.7,38-53.1.6-4.1,1.4-10.4-1.4-17.3-2.7-6.8-7-9.2-20.5-20.7-15.8-13.4-14.5-13.9-18-15.2Z"/>
      <path class="cls-2" d="M553.8,133.1l-131.6,139.9-80.1,85.1-36.9-35.9,107.6-96.7,120.9-108.7c6.1-6,15.5-5.3,20,0,3.5,4.2,3.7,10.9,0,16.1h0Z"/>
      <polygon class="cls-2" points="342.2 358.2 319.9 379.7 316.7 374.2 315.4 372 301.4 359 287.4 346.9 283.8 345 281.4 343.8 305.3 322.3 342.2 358.2"/>
      <circle class="cls-2" cx="135.9" cy="161.5" r="38.6"/>
      <circle class="cls-2" cx="241" cy="151.5" r="35.4"/>
      <circle class="cls-2" cx="145.5" cy="398.9" r="34.8"/>
      <circle class="cls-2" cx="339.8" cy="215" r="28"/>
    </g>
  </g>
</svg>