<?xml version="1.0" encoding="UTF-8"?>
<svg xmlns="http://www.w3.org/2000/svg" version="1.1" viewBox="0 0 595.28 595.28">
  <defs>
    <style>
      .cls-1 {
        fill: #fff;
      }
    </style>
  </defs>
  <!-- Generator: Adobe Illustrator 28.7.2, SVG Export Plug-In . SVG Version: 1.2.0 Build 154)  -->
  <g>
    <g id="icone_refait">
      <path id="téléphone" class="cls-1" d="M208.26,89.52c6.33,38.59,12.65,77.18,18.98,115.78.53,2.64.3,4.75-.25,6.46-3.35,10.29-22.03,15.61-46.33,13.8,5.15,14.05,13.89,34.28,28.59,56.19,36.87,54.94,95.57,96.34,114.35,83.79,11.18-7.47,8.29-34.11,22.67-37.46,2.53-.59,4.6-.24,5.91,0,21.56,3.89,104.4,23.51,113.36,25.63,2.71,13.97,5.44,40.27-9.23,61.65-25.97,37.86-86.91,31.84-114.97,29.04-59.78-5.96-101.11-35.15-119.27-48.3-69.95-50.67-94.37-118.41-103.5-144.9-12.3-35.69-13.36-61.07-11.83-79.84,1.71-21.05,3.59-44.27,20.7-62.1,20.19-21.04,51.54-28.63,80.83-19.71Z"/>
    </g>
  </g>
</svg>